<?xml version="1.0" encoding="utf-8"?>
<!-- Generator: Adobe Illustrator 17.1.0, SVG Export Plug-In . SVG Version: 6.00 Build 0)  -->
<!DOCTYPE svg PUBLIC "-//W3C//DTD SVG 1.1//EN" "http://www.w3.org/Graphics/SVG/1.1/DTD/svg11.dtd">
<svg version="1.1" id="secure-creditcard" xmlns="http://www.w3.org/2000/svg" xmlns:xlink="http://www.w3.org/1999/xlink" x="0px"
	 y="0px" viewBox="0 0 1010.0002 873.7055" enable-background="new 0 0 1010.0002 873.7055" xml:space="preserve">
<g>
	<g id="secure-creditcard-secure-creditcard">
		<g>
			<g>
				<path fill="#5C524C" d="M917.177,676.6557H527.5247v-36.7275H917.177c30.9345,0,56.0957-24.9092,56.0957-55.5205V92.2124
					c0-30.5938-25.1612-55.4849-56.0957-55.4849H197.2673c-30.9531,0-56.1314,24.8911-56.1314,55.4849v228.7558h-36.7265V92.2124
					C104.4094,41.372,146.0686,0,197.2673,0H917.177c51.1816,0,92.8232,41.372,92.8232,92.2124v492.1953
					C1010.0002,635.2661,968.3586,676.6557,917.177,676.6557L917.177,676.6557z"/>
			</g>
			<g>
				<polygon fill="#5C524C" points="991.7785,149.4555 130.34,149.4555 130.34,112.728 991.7785,112.728 991.7785,149.4555 				"/>
			</g>
			<g>
				<polygon fill="#5C524C" points="991.7785,247.9092 130.34,247.9092 130.34,211.1816 991.7785,211.1816 991.7785,247.9092 				
					"/>
			</g>
			<g>
				<polygon fill="#5C524C" points="918.9348,436.6377 610.2678,436.6377 610.2678,399.9111 918.9348,399.9111 918.9348,436.6377 
									"/>
			</g>
			<g>
				<polygon fill="#5C524C" points="680.2805,535.1274 549.0451,535.1274 549.0451,498.3999 680.2805,498.3999 680.2805,535.1274 
									"/>
			</g>
			<g>
				<polygon fill="#5C524C" points="918.9348,535.1274 710.1213,535.1274 710.1213,498.3999 918.9348,498.3999 918.9348,535.1274 
									"/>
			</g>
		</g>
		<g>
			<g>
				<path fill="#5C524C" d="M276.6032,873.7055c-6.7065,0-12.7148-3.9443-15.9243-9.8271
					c-7.353-9.415-57.7622-34.5215-140.5063-64.541c-6.7437-2.5117-14.0064-4.3047-21.7173-5.3985
					c-29.2129-3.999-53.9072-22.8476-71.2847-54.499C7.6774,703.8608,2.4231,661.52,12.3762,620.2026
					c10.4009-43.1836,28.4419-85.1113,29.1953-86.8691C71.448,461.6362,11.4436,424.354,8.8606,422.7934
					c-4.8414-2.9233-8.0699-7.9262-8.7334-13.54c-0.6636-5.6309,1.2915-11.2432,5.3261-15.2251l87.1197-86.1509
					c3.4438-3.4072,8.0698-5.3081,12.9121-5.3081h342.6313c4.8423,0,9.4692,1.9009,12.9121,5.3081l87.084,86.1509
					c4.0342,3.9819,5.9893,9.5942,5.3262,15.2251c-0.6641,5.6138-3.8916,10.6167-8.7334,13.54
					c-2.4932,1.542-62.3003,39.542-32.6211,110.7559c0.6816,1.542,18.7051,43.4873,29.0703,86.6709
					c9.9883,41.3183,4.752,83.6767-14.7422,119.2197c-17.3945,31.6514-42.0708,50.5-71.355,54.5166
					c-7.622,1.0586-14.8847,2.8692-21.5381,5.3262c-83.2993,30.2002-133.8173,55.4326-140.7583,64.7578
					C289.6228,870.1548,283.4899,873.7055,276.6032,873.7055L276.6032,873.7055z M46.1799,405.3984
					c28.2988,26.3438,56.6694,76.3775,29.1958,142.2817c-0.2691,0.628-17.6465,41.085-27.2764,81.1299
					c-7.8193,32.4239-3.8203,65.4385,11.2617,92.9659c11.7281,21.3398,26.5772,33.374,44.169,35.7763
					c10.3838,1.4893,20.2109,3.9278,29.2856,7.2988c87.4243,31.7247,126.1958,52.0069,144.1109,64.8643
					c18.1299-12.9473,57.1357-33.4443,143.9492-64.9189c8.9849-3.335,18.8306-5.7735,29.1426-7.2266
					c17.6093-2.4199,32.4585-14.4717,44.205-35.8125c15.0816-27.4912,19.0621-60.4883,11.2261-92.9287
					c-9.6128-40.0635-26.9892-80.5205-27.1694-80.9336c-27.5449-66.083,0.8252-116.1528,29.1059-142.4966l-66.8188-66.102H113.0354
					L46.1799,405.3984L46.1799,405.3984z"/>
			</g>
			<g>
				<path fill="#5C524C" d="M361.9294,704.7036c-2.9224,0-5.8643-0.7002-8.5356-2.1162l-76.6104-40.2598l-76.647,40.2598
					c-6.1328,3.2812-13.6831,2.7265-19.3315-1.3985c-5.6494-4.1074-8.4824-11.0654-7.2998-17.9511l14.6518-85.3272l-61.9589-60.3984
					c-5.003-4.878-6.7964-12.1768-4.6451-18.8301c2.1709-6.6523,7.9263-11.4951,14.8316-12.4805l85.6303-12.3935l38.3052-77.668
					c6.1699-12.5532,26.7569-12.5532,32.9258,0l38.3052,77.668l85.6675,12.3935c6.9209,0.9854,12.6606,5.8457,14.83,12.4805
					c2.1524,6.6533,0.3589,13.9521-4.6626,18.8477l-62.0127,60.3994l14.6514,85.3086c1.1831,6.8857-1.6504,13.8437-7.2983,17.9511
					C369.5339,703.52,365.7321,704.7036,361.9294,704.7036L361.9294,704.7036z M178.4909,537.2075l42.2154,41.1562
					c4.3222,4.2149,6.2944,10.295,5.2719,16.2471l-9.9887,58.1582l52.2568-27.4375c5.3447-2.8349,11.7285-2.8349,17.0727,0
					l52.2217,27.4375l-9.9887-58.1582c-1.023-5.9521,0.9506-12.0322,5.29-16.2646l42.2329-41.1387l-58.3545-8.4463
					c-5.9712-0.8613-11.1543-4.627-13.8262-10.043l-26.1108-52.9384l-26.1108,52.9384c-2.6729,5.416-7.8374,9.1817-13.8272,10.043
					L178.4909,537.2075L178.4909,537.2075z"/>
			</g>
		</g>
	</g>
</g>
</svg>
